<svg width="507" height="112" viewBox="0 0 507 112" fill="none" xmlns="http://www.w3.org/2000/svg">
<g clip-path="url(#clip0_411_159)">
<path d="M467.509 65.1661L416.956 96.1396C416.79 96.2502 416.624 96.3608 416.458 96.4161C412.752 98.2413 408.272 96.1396 407.277 92.3232C407.055 91.6042 407.111 90.7745 407.277 90.0555L413.416 63.9493C414.135 60.9626 414.412 57.8652 414.19 54.7679C414.19 54.7126 414.19 54.7126 414.19 54.6573C414.19 54.1042 414.135 53.4958 414.08 52.9427C413.969 51.6152 413.748 50.3431 413.471 49.071L407 21.9692C407 16.936 412.642 13.894 416.956 16.5489L467.509 47.6329C473.648 51.8918 473.648 60.9073 467.509 65.1661Z" fill="#1BDFB0"/>
<path d="M416.404 96.4159C416.404 96.4713 416.404 96.4713 416.404 96.4159C412.642 98.2965 408.218 96.1394 407.222 92.3783C407.001 91.6593 407.056 90.8297 407.222 90.1106L413.361 64.0044C414.08 61.0177 414.357 57.9204 414.136 54.823C414.136 54.7677 414.136 54.7677 414.136 54.7124C414.136 54.1593 414.08 53.5509 414.025 52.9978L421.492 85.5199C422.322 90.1106 420.054 94.2589 416.404 96.4159Z" fill="#219C7F"/>
</g>
<g clip-path="url(#clip1_411_159)">
<path d="M502.355 64.613L451.801 95.5865C451.636 95.6971 451.47 95.8077 451.304 95.863C447.598 97.6882 443.118 95.5865 442.122 91.7701C441.901 91.0511 441.956 90.2214 442.122 89.5024L448.262 63.3962C448.981 60.4095 449.257 57.3121 449.036 54.2148C449.036 54.1595 449.036 54.1595 449.036 54.1042C449.036 53.5511 448.981 52.9427 448.925 52.3896C448.815 51.0621 448.593 49.79 448.317 48.5179L441.846 21.4161C441.846 16.3829 447.487 13.3409 451.801 15.9958L502.355 47.0798C508.494 51.3387 508.494 60.3542 502.355 64.613Z" fill="#EA1C51"/>
<path d="M451.249 95.8628C451.249 95.9182 451.249 95.9182 451.249 95.8628C447.488 97.7434 443.063 95.5863 442.068 91.8252C441.847 91.1062 441.902 90.2766 442.068 89.5575L448.207 63.4513C448.926 60.4646 449.203 57.3673 448.982 54.2699C448.982 54.2146 448.982 54.2146 448.982 54.1593C448.982 53.6062 448.926 52.9978 448.871 52.4447L456.338 84.9668C457.167 89.5575 454.9 93.7058 451.249 95.8628Z" fill="#A51439"/>
</g>
<path d="M28.22 63.964C29.8973 62.332 30.736 60.02 30.736 57.028C30.736 54.036 29.8973 51.7467 28.22 50.16C26.5427 48.528 24.616 47.712 22.44 47.712C20.264 47.712 18.3373 48.528 16.66 50.16C14.9827 51.792 14.144 54.104 14.144 57.096C14.144 60.088 14.9827 62.4 16.66 64.032C18.3373 65.6187 20.264 66.412 22.44 66.412C24.616 66.412 26.5427 65.596 28.22 63.964ZM7.344 71.036C3.98933 67.4093 2.312 62.7627 2.312 57.096C2.312 51.4293 3.98933 46.7827 7.344 43.156C10.6987 39.484 14.7787 37.648 19.584 37.648C24.4347 37.648 28.152 39.4387 30.736 43.02V38.056H42.364V76H30.736V70.492C27.9253 74.4813 24.1627 76.476 19.448 76.476C14.7333 76.476 10.6987 74.6627 7.344 71.036ZM51.6285 71.172C48.1378 67.636 46.3925 62.9213 46.3925 57.028C46.3925 51.1347 48.1378 46.4427 51.6285 42.952C55.1645 39.416 59.7205 37.648 65.2965 37.648C69.9205 37.648 73.8418 38.804 77.0605 41.116C80.2791 43.3827 82.4098 46.6467 83.4525 50.908H70.8725C69.7845 48.6413 67.9938 47.508 65.5005 47.508C63.0525 47.508 61.2165 48.392 59.9925 50.16C58.8138 51.8827 58.2245 54.172 58.2245 57.028C58.2245 59.884 58.8138 62.196 59.9925 63.964C61.2165 65.6867 62.9845 66.548 65.2965 66.548C66.7471 66.548 67.8805 66.2987 68.6965 65.8C69.5125 65.3013 70.2378 64.4173 70.8725 63.148H83.4525C82.4098 67.228 80.2565 70.4693 76.9925 72.872C73.7285 75.2747 69.8298 76.476 65.2965 76.476C59.7205 76.476 55.1645 74.708 51.6285 71.172ZM89.0019 71.172C85.5112 67.636 83.7659 62.9213 83.7659 57.028C83.7659 51.1347 85.5112 46.4427 89.0019 42.952C92.5379 39.416 97.0939 37.648 102.67 37.648C107.294 37.648 111.215 38.804 114.434 41.116C117.653 43.3827 119.783 46.6467 120.826 50.908H108.246C107.158 48.6413 105.367 47.508 102.874 47.508C100.426 47.508 98.5899 48.392 97.3659 50.16C96.1872 51.8827 95.5979 54.172 95.5979 57.028C95.5979 59.884 96.1872 62.196 97.3659 63.964C98.5899 65.6867 100.358 66.548 102.67 66.548C104.121 66.548 105.254 66.2987 106.07 65.8C106.886 65.3013 107.611 64.4173 108.246 63.148H120.826C119.783 67.228 117.63 70.4693 114.366 72.872C111.102 75.2747 107.203 76.476 102.67 76.476C97.0939 76.476 92.5379 74.708 89.0019 71.172ZM140.043 76.476C134.513 76.476 129.979 74.708 126.443 71.172C122.907 67.5907 121.139 62.8533 121.139 56.96C121.139 51.0667 122.885 46.3747 126.375 42.884C129.911 39.3933 134.467 37.648 140.043 37.648C145.619 37.648 150.243 39.3707 153.915 42.816C157.587 46.2613 159.423 51.044 159.423 57.164C159.423 58.4787 159.333 59.7027 159.151 60.836H133.039C133.266 62.5133 134.014 63.896 135.283 64.984C136.553 66.0267 137.913 66.548 139.363 66.548C140.859 66.548 141.97 66.412 142.695 66.14C143.421 65.8227 143.942 65.528 144.259 65.256C144.622 64.9387 145.075 64.44 145.619 63.76H158.199C157.111 67.568 154.935 70.6507 151.671 73.008C148.407 75.32 144.531 76.476 140.043 76.476ZM147.319 53.56C147.138 51.792 146.367 50.364 145.007 49.276C143.647 48.1427 142.038 47.576 140.179 47.576C138.321 47.576 136.757 48.1427 135.487 49.276C134.218 50.364 133.425 51.792 133.107 53.56H147.319ZM163.492 76V25.68H175.12V76H163.492ZM198.056 76.476C192.525 76.476 187.992 74.708 184.456 71.172C180.92 67.5907 179.152 62.8533 179.152 56.96C179.152 51.0667 180.897 46.3747 184.388 42.884C187.924 39.3933 192.48 37.648 198.056 37.648C203.632 37.648 208.256 39.3707 211.928 42.816C215.6 46.2613 217.436 51.044 217.436 57.164C217.436 58.4787 217.345 59.7027 217.164 60.836H191.052C191.279 62.5133 192.027 63.896 193.296 64.984C194.565 66.0267 195.925 66.548 197.376 66.548C198.872 66.548 199.983 66.412 200.708 66.14C201.433 65.8227 201.955 65.528 202.272 65.256C202.635 64.9387 203.088 64.44 203.632 63.76H216.212C215.124 67.568 212.948 70.6507 209.684 73.008C206.42 75.32 202.544 76.476 198.056 76.476ZM205.332 53.56C205.151 51.792 204.38 50.364 203.02 49.276C201.66 48.1427 200.051 47.576 198.192 47.576C196.333 47.576 194.769 48.1427 193.5 49.276C192.231 50.364 191.437 51.792 191.12 53.56H205.332ZM233.133 38.056V45.128C235.853 40.1413 239.479 37.648 244.013 37.648V49.48H241.157C238.482 49.48 236.465 50.1147 235.105 51.384C233.79 52.6533 233.133 54.8747 233.133 58.048V76H221.505V38.056H233.133ZM351.202 66.14H355.35V76H349.434C345.173 76 341.863 75.0707 339.506 73.212C337.194 71.308 336.038 68.0667 336.038 63.488V47.712H332.502V38.056H336.038V28.808H347.666V38.056H355.282V47.712H347.666V63.488C347.666 65.256 348.845 66.14 351.202 66.14ZM376.025 76.476C370.494 76.476 365.961 74.708 362.425 71.172C358.889 67.5907 357.121 62.8533 357.121 56.96C357.121 51.0667 358.866 46.3747 362.357 42.884C365.893 39.3933 370.449 37.648 376.025 37.648C381.601 37.648 386.225 39.3707 389.897 42.816C393.569 46.2613 395.405 51.044 395.405 57.164C395.405 58.4787 395.314 59.7027 395.133 60.836H369.021C369.247 62.5133 369.995 63.896 371.265 64.984C372.534 66.0267 373.894 66.548 375.345 66.548C376.841 66.548 377.951 66.412 378.677 66.14C379.402 65.8227 379.923 65.528 380.241 65.256C380.603 64.9387 381.057 64.44 381.601 63.76H394.181C393.093 67.568 390.917 70.6507 387.653 73.008C384.389 75.32 380.513 76.476 376.025 76.476ZM383.301 53.56C383.119 51.792 382.349 50.364 380.989 49.276C379.629 48.1427 378.019 47.576 376.161 47.576C374.302 47.576 372.738 48.1427 371.469 49.276C370.199 50.364 369.406 51.792 369.089 53.56H383.301Z" fill="white"/>
<path d="M270.045 63.964C271.722 62.332 272.561 60.02 272.561 57.028C272.561 54.036 271.722 51.7467 270.045 50.16C268.368 48.528 266.441 47.712 264.265 47.712C262.089 47.712 260.162 48.528 258.485 50.16C256.808 51.792 255.969 54.104 255.969 57.096C255.969 60.088 256.808 62.4 258.485 64.032C260.162 65.6187 262.089 66.412 264.265 66.412C266.441 66.412 268.368 65.596 270.045 63.964ZM249.169 71.036C245.814 67.4093 244.137 62.7627 244.137 57.096C244.137 51.4293 245.814 46.7827 249.169 43.156C252.524 39.484 256.604 37.648 261.409 37.648C266.26 37.648 269.977 39.4387 272.561 43.02V38.056H284.189V76H272.561V70.492C269.75 74.4813 265.988 76.476 261.273 76.476C256.558 76.476 252.524 74.6627 249.169 71.036Z" fill="#1BDFB0"/>
<path d="M314.125 63.964C315.803 62.332 316.641 60.02 316.641 57.028C316.641 54.036 315.803 51.7467 314.125 50.16C312.448 48.528 310.521 47.712 308.345 47.712C306.169 47.712 304.243 48.528 302.565 50.16C300.888 51.792 300.049 54.104 300.049 57.096C300.049 60.088 300.888 62.4 302.565 64.032C304.243 65.6187 306.169 66.412 308.345 66.412C310.521 66.412 312.448 65.596 314.125 63.964ZM293.249 71.036C289.895 67.4093 288.217 62.7627 288.217 57.096C288.217 51.4293 289.895 46.7827 293.249 43.156C296.604 39.484 300.684 37.648 305.489 37.648C310.34 37.648 314.057 39.4387 316.641 43.02V38.056H328.269V76H316.641V70.492C313.831 74.4813 310.068 76.476 305.353 76.476C300.639 76.476 296.604 74.6627 293.249 71.036Z" fill="#EA1C51"/>
<defs>
<clipPath id="clip0_411_159">
<rect width="65.1549" height="81.5819" fill="white" transform="translate(407 15.5531)"/>
</clipPath>
<clipPath id="clip1_411_159">
<rect width="65.1549" height="81.5819" fill="white" transform="translate(441.846 15)"/>
</clipPath>
</defs>
</svg>
