<?xml version="1.0" encoding="utf-8"?>
<!-- Generator: Adobe Illustrator 27.0.1, SVG Export Plug-In . SVG Version: 6.00 Build 0)  -->
<svg version="1.1" id="Layer_1" xmlns="http://www.w3.org/2000/svg" xmlns:xlink="http://www.w3.org/1999/xlink" x="0px" y="0px"
	 viewBox="0 0 553 129" style="enable-background:new 0 0 553 129;" xml:space="preserve">
<style type="text/css">
	.st0{fill:#0B5CFF;}
</style>
<path id="Wordmark_00000070839276132830528720000016388649483839495336_" class="st0" d="M118.68,125.22H22.42
	c-6.3,0-12.46-3.38-15.38-9.07c-3.38-6.61-2.15-14.45,3.08-19.53l67.04-67.04H29.03C15.8,29.58,5.19,18.81,5.19,5.74h88.72
	c6.3,0,12.46,3.38,15.38,9.07c3.38,6.61,2.15,14.45-3.08,19.53l-67.04,67.04h55.51C107.91,101.39,118.68,112.15,118.68,125.22z
	 M499.71,4.05c-13.84,0-26.14,6-34.75,15.53c-8.61-9.53-20.91-15.53-34.75-15.53c-25.53,0-46.44,21.84-46.44,47.36v73.81
	c13.22,0,23.83-10.76,23.83-23.83V51.26c0-12.3,9.53-22.76,21.84-23.22c12.92-0.46,23.53,9.84,23.53,22.6v50.74
	c0,13.22,10.76,23.83,23.83,23.83V51.1c0-12.3,9.53-22.76,21.84-23.22c12.92-0.46,23.53,9.84,23.53,22.6v50.74
	c0,13.22,10.76,23.83,23.83,23.83V51.26C546.15,25.89,525.24,4.05,499.71,4.05z M239.23,65.56c0,33.98-27.52,61.51-61.51,61.51
	s-61.51-27.52-61.51-61.51s27.52-61.51,61.51-61.51S239.23,31.58,239.23,65.56z M215.4,65.56c0-20.76-16.91-37.67-37.67-37.67
	s-37.67,16.91-37.67,37.67s16.91,37.67,37.67,37.67S215.4,86.32,215.4,65.56z M371.78,65.56c0,33.98-27.52,61.51-61.51,61.51
	s-61.51-27.52-61.51-61.51s27.52-61.51,61.51-61.51S371.78,31.58,371.78,65.56z M347.94,65.56c0-20.76-16.91-37.67-37.67-37.67
	c-20.76,0-37.67,16.91-37.67,37.67s16.91,37.67,37.67,37.67C331.03,103.23,347.94,86.32,347.94,65.56z"/>
</svg>
